<?xml version="1.0" encoding="utf-8"?>
<!-- Generator: Adobe Illustrator 19.1.1, SVG Export Plug-In . SVG Version: 6.00 Build 0)  -->
<svg version="1.1" id="Слой_1" xmlns="http://www.w3.org/2000/svg" xmlns:xlink="http://www.w3.org/1999/xlink" x="0px" y="0px"
	 viewBox="0 0 28.9 28.9" style="enable-background:new 0 0 28.9 28.9;" xml:space="preserve">
<style type="text/css">
	.st0{fill:#B5B2BB;}
	.st1{fill:#1D202E;}
</style>
<path class="st0" d="M28.9,22.4c0,3.6-2.9,6.5-6.5,6.5H6.5C2.9,28.9,0,26,0,22.4V6.5C0,2.9,2.9,0,6.5,0h15.9c3.6,0,6.5,2.9,6.5,6.5
	V22.4z"/>
<g>
	<path class="st1" d="M14.4,19.2c-0.3,0-0.6-0.1-0.9-0.4c-0.1-0.1-0.1-0.3,0-0.4c0.1-0.1,0.3-0.1,0.4,0c0.2,0.2,0.3,0.3,0.4,0.3
		c0.1,0,0.3-0.1,0.4-0.3c0.1-0.1,0.3-0.1,0.4,0c0.1,0.1,0.1,0.3,0,0.4C15,19.1,14.7,19.2,14.4,19.2z M6.8,14.6c0,0.7,0.1,1.4,0.2,2
		s0.3,1.1,0.5,1.6c0.2,0.4,0.5,0.8,0.9,1.2c0.4,0.3,0.7,0.6,1.2,0.8c0.4,0.2,0.9,0.4,1.4,0.5c0.5,0.1,1.1,0.2,1.6,0.3
		c0.6,0.1,1.2,0.1,1.8,0.1s1.3,0,1.8-0.1c0.6-0.1,1.1-0.1,1.6-0.3c0.5-0.1,1-0.3,1.4-0.5c0.4-0.2,0.8-0.5,1.2-0.8
		c0.4-0.3,0.7-0.7,0.9-1.2c0.2-0.4,0.4-1,0.5-1.6c0.1-0.6,0.2-1.3,0.2-2c0-1.3-0.4-2.5-1.2-3.5c0-0.1,0.1-0.3,0.1-0.4
		c0-0.2,0.1-0.4,0.1-0.7c0-0.3,0-0.7,0-1.1c-0.1-0.4-0.2-0.8-0.3-1.2l-0.1,0c-0.1,0-0.2,0-0.4,0c-0.2,0-0.4,0.1-0.6,0.1
		C19.3,8,19,8.1,18.7,8.3c-0.4,0.2-0.8,0.5-1.2,0.8c-0.7-0.2-1.7-0.5-3-0.5c-1.3,0-2.3,0.2-3,0.5c-0.4-0.3-0.8-0.6-1.2-0.8
		C9.8,8.1,9.5,8,9.3,7.9C9.1,7.8,8.8,7.8,8.6,7.7c-0.2,0-0.3,0-0.4,0c-0.1,0-0.1,0-0.1,0C8,8.2,7.9,8.6,7.8,9c-0.1,0.4-0.1,0.7,0,1
		c0,0.3,0.1,0.5,0.1,0.7c0,0.2,0.1,0.3,0.1,0.4C7.2,12.1,6.8,13.3,6.8,14.6z M8.8,16.3c0-0.9,0.3-1.7,1-2.4c0.2-0.2,0.4-0.4,0.7-0.5
		c0.3-0.1,0.5-0.2,0.9-0.2c0.3,0,0.6,0,0.9,0c0.3,0,0.7,0,1.1,0.1c0.4,0,0.8,0.1,1.1,0.1c0.3,0,0.7,0,1.1-0.1c0.4,0,0.8-0.1,1.1-0.1
		c0.3,0,0.6,0,0.9,0c0.3,0,0.6,0.1,0.9,0.2c0.3,0.1,0.5,0.3,0.7,0.5c0.6,0.7,1,1.5,1,2.4c0,0.5-0.1,1-0.2,1.4
		c-0.1,0.4-0.2,0.7-0.4,1c-0.2,0.3-0.4,0.5-0.7,0.7c-0.3,0.2-0.6,0.3-0.9,0.4c-0.3,0.1-0.6,0.2-1.1,0.2c-0.4,0.1-0.8,0.1-1.2,0.1
		c-0.3,0-0.8,0-1.3,0c-0.5,0-1,0-1.3,0c-0.3,0-0.7,0-1.2-0.1c-0.4-0.1-0.8-0.1-1.1-0.2c-0.3-0.1-0.6-0.2-0.9-0.4
		c-0.3-0.2-0.5-0.4-0.7-0.7c-0.2-0.3-0.3-0.6-0.4-1C8.9,17.3,8.8,16.9,8.8,16.3z M10.6,15.9c0,0.8,0.4,1.4,1,1.4c0.5,0,1-0.6,1-1.4
		s-0.4-1.4-1-1.4S10.6,15.1,10.6,15.9z M16.4,15.9c0,0.8,0.4,1.4,1,1.4s1-0.6,1-1.4s-0.4-1.4-1-1.4S16.4,15.1,16.4,15.9z"/>
</g>
</svg>
