<?xml version="1.0" encoding="utf-8"?>
<!-- Generator: Adobe Illustrator 19.1.1, SVG Export Plug-In . SVG Version: 6.00 Build 0)  -->
<svg version="1.1" id="Слой_1" xmlns="http://www.w3.org/2000/svg" xmlns:xlink="http://www.w3.org/1999/xlink" x="0px" y="0px"
	 viewBox="0 0 28.9 28.9" style="enable-background:new 0 0 28.9 28.9;" xml:space="preserve">
<style type="text/css">
	.st0{fill:#5A90C4;}
	.st1{fill-rule:evenodd;clip-rule:evenodd;fill:#FFFFFF;}
</style>
<g>
	<path class="st0" d="M28.9,22.4c0,3.6-2.9,6.5-6.5,6.5H6.5C2.9,28.9,0,26,0,22.4V6.5C0,2.9,2.9,0,6.5,0h15.9c3.6,0,6.5,2.9,6.5,6.5
		V22.4z"/>
	<path class="st1" d="M21.1,15.6c0.1-0.4,0.1-0.7,0.1-1.1c0-3.8-3-6.8-6.8-6.8c-0.4,0-0.7,0-1.1,0.1c-0.6-0.4-1.4-0.7-2.2-0.7
		c-2.2,0-3.9,1.8-3.9,3.9c0,0.7,0.2,1.4,0.6,2c-0.1,0.5-0.1,0.9-0.1,1.4c0,3.8,3,6.8,6.8,6.8c0.5,0,1-0.1,1.4-0.2
		c0.6,0.3,1.3,0.5,2,0.5c2.2,0,3.9-1.8,3.9-3.9C21.7,17,21.5,16.2,21.1,15.6z M16.4,18.4c-0.9,0.4-2.3,0.4-3.3,0.2
		c-1.4-0.3-2-1.1-2.1-1.8c-0.2-1,0.9-1.3,1.5-0.6c0.1,0.2,0.3,0.3,0.4,0.5c0.8,0.9,2.4,0.8,2.9,0.1c0.2-0.3,0.2-0.7,0-1
		c-0.2-0.3-0.5-0.3-2.9-0.9c-2.3-0.6-2.2-2.6-1.6-3.6c0.5-0.8,1.6-1.1,2.5-1.2c1.7-0.1,3.5,0.7,3.7,1.7c0.1,0.4-0.2,0.8-0.6,0.9
		c-0.6,0.1-0.8-0.3-1.2-0.6c-0.7-0.8-2.1-0.7-2.6-0.3c-0.4,0.3-0.4,0.9-0.1,1.2c0.6,0.5,2.5,0.6,3.4,1c1,0.4,1.4,1.2,1.4,2.1
		C17.9,17.2,17.4,18,16.4,18.4z"/>
</g>
</svg>
