<?xml version="1.0" encoding="utf-8"?><svg xmlns="http://www.w3.org/2000/svg" xmlns:xlink="http://www.w3.org/1999/xlink"><symbol viewBox="0 0 384.97 384.97" id="check-arrow"><path d="M192.485 0C86.173 0 0 86.173 0 192.485S86.173 384.97 192.485 384.97c106.3 0 192.485-86.185 192.485-192.485C384.97 86.173 298.785 0 192.485 0zm0 360.909c-93.018 0-168.424-75.406-168.424-168.424S99.467 24.061 192.485 24.061s168.424 75.406 168.424 168.424-75.406 168.424-168.424 168.424z"/><path d="M280.306 125.031L156.538 247.692l-51.502-50.479c-4.74-4.704-12.439-4.704-17.179 0a11.931 11.931 0 0 0 0 17.011l60.139 58.936c4.932 4.343 12.307 4.824 17.179 0l132.321-131.118a11.952 11.952 0 0 0 0-17.011c-4.751-4.692-12.438-4.692-17.19 0z"/></symbol><symbol viewBox="0 0 384.97 384.97" id="close-arrow"><path d="M192.485 0C86.173 0 0 86.173 0 192.485c0 106.3 86.173 192.485 192.485 192.485 106.3 0 192.485-86.173 192.485-192.485S298.785 0 192.485 0zm0 360.909c-93.018 0-168.424-75.406-168.424-168.424S99.467 24.061 192.485 24.061s168.424 75.406 168.424 168.424-75.406 168.424-168.424 168.424z"/><path d="M273.437 255.897l-63.376-63.388 63.015-62.497a11.931 11.931 0 0 0 0-17.011c-4.74-4.692-12.439-4.692-17.179 0l-62.931 62.413-63.869-63.881c-4.74-4.764-12.439-4.764-17.179 0-4.74 4.752-4.74 12.475 0 17.227l63.773 63.785-64.134 63.604c-4.74 4.704-4.74 12.319 0 17.011 4.74 4.704 12.439 4.704 17.191 0l64.049-63.52 63.472 63.472c4.74 4.764 12.439 4.764 17.179 0 4.729-4.74 4.729-12.451-.011-17.215z"/></symbol><symbol viewBox="0 0 453.834 453.834" id="down-arrow"><path d="M226.932 0C101.625 0 .03 101.595.03 226.902 0 352.269 101.595 453.834 226.932 453.834c125.307 0 226.871-101.595 226.871-226.902C453.834 101.595 352.239 0 226.932 0zm0 423.465c-108.344 0-196.502-88.158-196.502-196.502S118.588 30.46 226.932 30.46c108.344-.03 196.472 88.128 196.472 196.502.03 108.314-88.128 196.503-196.472 196.503z"/><path d="M313.723 177.199l-87.885 87.915-87.885-87.915c-5.928-5.928-15.565-5.928-21.492 0s-5.928 15.565 0 21.492l98.585 98.585c2.979 3.04 6.901 4.438 10.792 4.438 3.922 0 7.813-1.49 10.792-4.438l98.555-98.585c5.928-5.928 5.928-15.565 0-21.492s-15.535-5.928-21.462 0z"/></symbol><symbol viewBox="0 0 374.117 374.117" id="download"><path d="M344.059 207.508c-16.568 0-30 13.432-30 30v76.609h-254v-76.609c0-16.568-13.432-30-30-30s-30 13.432-30 30v106.609c0 16.568 13.432 30 30 30h314c16.568 0 30-13.432 30-30V237.508c0-16.569-13.432-30-30-30z"/><path d="M250.547 108.287l-33.488 33.488V30c0-16.568-13.432-30-30-30s-30 13.432-30 30v111.775l-33.488-33.488c-5.857-5.857-13.535-8.787-21.213-8.787-7.678 0-15.355 2.93-21.213 8.787-11.715 11.717-11.715 30.711 0 42.426l84.701 84.701c11.715 11.717 30.711 11.717 42.426 0l84.701-84.701c11.717-11.715 11.717-30.709 0-42.426-11.715-11.717-30.711-11.717-42.426 0z"/></symbol><symbol viewBox="0 0 44.934 44.934" id="laptop"><path d="M39.917 6.267H5.023v23.01h34.894V6.267zm-3.538 19.472H8.56V9.803h27.819v15.936zm-9.11 11.416H0v1.512h44.934v-1.512zm12.641-6.81H5.023L.27 36.695h44.395l-4.755-6.35zm-5.016 1.166h1.919v.958h-1.919v-.958zm3.104 1.529v.958h-1.9v-.958h1.9zm-2.377 0v.958h-1.918v-.958h1.918zm-3.351-1.529h1.918v.958H32.27v-.958zm.728 1.529v.958H31.08v-.958h1.918zm-3.41-1.529h1.918v.958h-1.918v-.958zm.728 1.529v.958h-1.918v-.958h1.918zm-3.474-1.529h1.918v.958h-1.918v-.958zm-2.682 0h1.918v.958H24.16v-.958zm.727 1.529v.958h-1.918v-.958h1.918zm-3.351-1.529h1.917v.958h-1.917v-.958zm.727 1.529v.958h-1.918v-.958h1.918zm-3.409-1.529h1.918v.958h-1.918v-.958zm.728 1.529v.958h-1.918v-.958h1.918zm-3.468-1.529h1.918v.958h-1.918v-.958zm.728 1.529v.958h-1.918v-.958h1.918zm-3.409-1.529h1.918v.958h-1.918v-.958zm.727 1.529v.958h-1.918v-.958h1.918zm-3.351-1.529h1.918v.958h-1.918v-.958zm.728 1.529v.958H9.619v-.958h1.918zm-3.41-1.529h1.918v.958H8.127v-.958zM6.936 33.04h1.919v.958H6.936v-.958zm.373 2.406H5.391v-.959h1.918v.959zm2.451 0H7.842v-.959H9.76v.959zm2.682 0h-1.918v-.959h1.918v.959zm2.624 0h-1.919v-.959h1.918l.001.959zm2.681 0h-1.918v-.959h1.918v.959zm7.878 0h-7.056v-.959h7.056v.959zm.025-2.406h1.918v.958H25.65v-.958zm2.824 2.406h-1.918v-.959h1.918v.959zm2.747 0h-1.918v-.959h1.918v.959zm2.681 0h-1.918v-.959h1.918v.959zm2.625 0h-1.918v-.959h1.918v.959zm2.422 0h-1.918v-.959h1.918v.959z"/></symbol><symbol viewBox="0 0 384.97 384.97" id="menu"><path d="M12.03 84.212h360.909c6.641 0 12.03-5.39 12.03-12.03 0-6.641-5.39-12.03-12.03-12.03H12.03C5.39 60.152 0 65.541 0 72.182c0 6.641 5.39 12.03 12.03 12.03zm360.909 96.243H12.03c-6.641 0-12.03 5.39-12.03 12.03s5.39 12.03 12.03 12.03h360.909c6.641 0 12.03-5.39 12.03-12.03s-5.389-12.03-12.03-12.03zm0 120.303H12.03c-6.641 0-12.03 5.39-12.03 12.03 0 6.641 5.39 12.03 12.03 12.03h360.909c6.641 0 12.03-5.39 12.03-12.03.001-6.641-5.389-12.03-12.03-12.03z"/></symbol><symbol viewBox="0 0 487.958 487.958" id="next"><path d="M483.058 215.613l-215.5-177.6c-4-3.3-9.6-4-14.3-1.8-4.7 2.2-7.7 7-7.7 12.2v93.6c-104.6 3.8-176.5 40.7-213.9 109.8-32.2 59.6-31.9 130.2-31.6 176.9v10.8c0 6.1 4.1 11.5 10.1 13.1 1.1.3 2.3.4 3.4.4 4.8 0 9.3-2.5 11.7-6.8 73-128.7 133.1-134.9 220.2-135.2v93.3c0 5.2 3 10 7.8 12.2s10.3 1.5 14.4-1.8l215.4-178.2c3.1-2.6 4.9-6.4 4.9-10.4s-1.8-7.9-4.9-10.5zm-210.5 160v-78.1c0-3.6-1.4-7-4-9.5-2.5-2.5-6-4-9.5-4-54.4 0-96.1 1.5-136.6 20.4-35 16.3-65.3 44-95.2 87.5 1.2-39.7 6.4-87.1 28.1-127.2 34.4-63.6 101-95.1 203.7-96 7.4-.1 13.4-6.1 13.4-13.5v-78.2l180.7 149.1-180.6 149.5z"/></symbol></svg>