<?xml version="1.0" encoding="utf-8"?><svg xmlns="http://www.w3.org/2000/svg" xmlns:xlink="http://www.w3.org/1999/xlink"><symbol viewBox="0 0 453.834 453.834" id="down-arrow"><path d="M226.932 0C101.625 0 .03 101.595.03 226.902 0 352.269 101.595 453.834 226.932 453.834c125.307 0 226.871-101.595 226.871-226.902C453.834 101.595 352.239 0 226.932 0zm0 423.465c-108.344 0-196.502-88.158-196.502-196.502S118.588 30.46 226.932 30.46c108.344-.03 196.472 88.128 196.472 196.502.03 108.314-88.128 196.503-196.472 196.503z"/><path d="M313.723 177.199l-87.885 87.915-87.885-87.915c-5.928-5.928-15.565-5.928-21.492 0s-5.928 15.565 0 21.492l98.585 98.585c2.979 3.04 6.901 4.438 10.792 4.438 3.922 0 7.813-1.49 10.792-4.438l98.555-98.585c5.928-5.928 5.928-15.565 0-21.492s-15.535-5.928-21.462 0z"/></symbol><symbol viewBox="0 0 44.934 44.934" id="laptop"><path d="M39.917 6.267H5.023v23.01h34.894V6.267zm-3.538 19.472H8.56V9.803h27.819v15.936zm-9.11 11.416H0v1.512h44.934v-1.512zm12.641-6.81H5.023L.27 36.695h44.395l-4.755-6.35zm-5.016 1.166h1.919v.958h-1.919v-.958zm3.104 1.529v.958h-1.9v-.958h1.9zm-2.377 0v.958h-1.918v-.958h1.918zm-3.351-1.529h1.918v.958H32.27v-.958zm.728 1.529v.958H31.08v-.958h1.918zm-3.41-1.529h1.918v.958h-1.918v-.958zm.728 1.529v.958h-1.918v-.958h1.918zm-3.474-1.529h1.918v.958h-1.918v-.958zm-2.682 0h1.918v.958H24.16v-.958zm.727 1.529v.958h-1.918v-.958h1.918zm-3.351-1.529h1.917v.958h-1.917v-.958zm.727 1.529v.958h-1.918v-.958h1.918zm-3.409-1.529h1.918v.958h-1.918v-.958zm.728 1.529v.958h-1.918v-.958h1.918zm-3.468-1.529h1.918v.958h-1.918v-.958zm.728 1.529v.958h-1.918v-.958h1.918zm-3.409-1.529h1.918v.958h-1.918v-.958zm.727 1.529v.958h-1.918v-.958h1.918zm-3.351-1.529h1.918v.958h-1.918v-.958zm.728 1.529v.958H9.619v-.958h1.918zm-3.41-1.529h1.918v.958H8.127v-.958zM6.936 33.04h1.919v.958H6.936v-.958zm.373 2.406H5.391v-.959h1.918v.959zm2.451 0H7.842v-.959H9.76v.959zm2.682 0h-1.918v-.959h1.918v.959zm2.624 0h-1.919v-.959h1.918l.001.959zm2.681 0h-1.918v-.959h1.918v.959zm7.878 0h-7.056v-.959h7.056v.959zm.025-2.406h1.918v.958H25.65v-.958zm2.824 2.406h-1.918v-.959h1.918v.959zm2.747 0h-1.918v-.959h1.918v.959zm2.681 0h-1.918v-.959h1.918v.959zm2.625 0h-1.918v-.959h1.918v.959zm2.422 0h-1.918v-.959h1.918v.959z"/></symbol><symbol viewBox="0 0 384.97 384.97" id="menu"><path d="M12.03 84.212h360.909c6.641 0 12.03-5.39 12.03-12.03 0-6.641-5.39-12.03-12.03-12.03H12.03C5.39 60.152 0 65.541 0 72.182c0 6.641 5.39 12.03 12.03 12.03zm360.909 96.243H12.03c-6.641 0-12.03 5.39-12.03 12.03s5.39 12.03 12.03 12.03h360.909c6.641 0 12.03-5.39 12.03-12.03s-5.389-12.03-12.03-12.03zm0 120.303H12.03c-6.641 0-12.03 5.39-12.03 12.03 0 6.641 5.39 12.03 12.03 12.03h360.909c6.641 0 12.03-5.39 12.03-12.03.001-6.641-5.389-12.03-12.03-12.03z"/></symbol></svg>