<?xml version="1.0" encoding="utf-8"?>
<!-- Generator: Adobe Illustrator 19.1.1, SVG Export Plug-In . SVG Version: 6.00 Build 0)  -->
<svg version="1.1" id="Capa_1" xmlns="http://www.w3.org/2000/svg" xmlns:xlink="http://www.w3.org/1999/xlink" x="0px" y="0px"
	 viewBox="-256 375.3 98.9 43.7" style="enable-background:new -256 375.3 98.9 43.7;" xml:space="preserve">
<style type="text/css">
	.st0{fill:#323140;}
	.st1{fill:#D94D54;}
</style>
<g>
	<path class="st0" d="M-254.3,400.3l1.1,0.1h1.2c1.8,0,3.9-0.3,6.4-0.9c4.6-8.4,9.6-15,15.1-19.7c1.6-1.4,3-2.1,4-2.1
		c1.3,0,1.9,1,1.9,2.9s-0.6,3.7-1.7,5.3c-0.7,0.9-1.2,1.4-1.4,1.4c-0.3,0-0.4-0.1-0.4-0.2c0-0.2,0.4-0.9,1.2-2.4
		c0.8-1.4,1.2-2.6,1.2-3.5s-0.5-1.4-1.4-1.4c-1.4,0-3.4,1.5-6,4.4c-2.6,2.9-4.5,5.4-5.8,7.5c-1.4,2.2-2.8,4.6-4.2,7.2l9.1-3
		c0.2,0,0.2,0,0.2,0.1c0,0.2-0.4,0.5-1.1,0.8c-2.8,1.2-5.7,2.2-8.8,3.1c-2.5,4.9-4.1,9.4-4.8,13.5c0,0-0.2,1.6-0.5,4.7
		c-0.1,0.7-0.6,1-1.4,1c-0.9,0-1.4-0.3-1.4-1c0.3-3.2,0.5-5.2,0.5-6.2c0-4.2-0.7-6.9-2-8.3l-1.3-0.8c-0.4-0.3-0.7-0.7-0.7-1.3
		C-255.3,400.6-254.9,400.3-254.3,400.3z M-246.1,400.5c-1.6,0.4-3.8,0.8-6.6,1.3c1.3,0.7,2.1,3.6,2.3,8.6
		C-249.3,407.1-247.9,403.9-246.1,400.5z"/>
	<path class="st0" d="M-221,408.6c0.1,0,0.2,0.1,0.2,0.3s-0.1,0.4-0.2,0.6c-3.6,5.4-6.4,8-8.3,8c-1.1,0-1.9-0.5-2.4-1.5
		s-0.8-2.2-0.8-3.4c0-1.3,0.2-2.7,0.6-4.4c-2.5,5.6-5.1,8.4-7.8,8.4c-1.6,0-2.5-1.1-2.5-3.2c0-3.4,1.6-6.9,4.9-10.6
		c3.3-3.7,6.6-5.5,9.9-5.5c1.6,0,2.3,0.7,2.3,2c0,1.7-1.1,3.4-3.4,5c-1.2,2.9-1.7,5.6-1.7,8.3c0,2.7,0.5,4,1.5,4
		c1.3,0,3.7-2.5,7.2-7.6C-221.3,408.8-221.1,408.6-221,408.6z M-227.9,402.3c0.6-0.9,1-1.8,1-2.6c0-0.9-0.4-1.3-1.3-1.3
		c-2,0-4.6,2-7.9,5.9c-3.2,3.9-4.9,7-4.9,9.1c0,0.9,0.4,1.4,1.3,1.4c2.5,0,5-2.8,7.3-8.4c-0.7,0.2-1.2,0.3-1.4,0.3s-0.4-0.1-0.4-0.2
		c0-0.2,0.3-0.4,0.8-0.6l1.9-1.1c0.1-0.7,0.5-1.6,1.3-2.7s1.5-1.7,2.2-1.7c0.2,0,0.4,0.2,0.4,0.5
		C-227.6,401.3-227.8,401.6-227.9,402.3z"/>
	<path class="st0" d="M-222.3,417l3.4-15.2c-0.2-0.6-0.6-1.6-1.3-3.2c0-0.3,0.3-0.5,1-0.8c2-0.8,3.3-1.1,3.9-1.1
		c0.6,0,0.9,0.2,0.9,0.5c-1.5,3.7-2.5,6.2-3.1,7.7c0,0.1,0,0.2,0,0.4c0,1.2-0.2,1.9-0.5,1.9c-0.1,0-0.1-0.1-0.2-0.2
		c-0.8,2.5-1.4,4.4-1.7,5.5c1.8-3,3.7-5.6,5.6-7.9c3-3.5,5.5-5.2,7.4-5.2c0.9,0,1.4,0.4,1.4,1.1c0,0.3-1.2,4.7-3.5,13.2
		c2.3-1.7,4.1-3.6,5.4-5.5c0.2-0.2,0.3-0.4,0.4-0.4s0.1,0.1,0.1,0.2s-0.1,0.3-0.2,0.5c-1.8,3.1-3.9,5.6-6.4,7.4
		c-0.2,0.2-0.5,0.4-0.8,0.4s-0.5-0.2-0.5-0.5s0.2-1.7,0.7-4.1s0.8-4.2,1-5.4c0.2-1.2,0.4-2.8,0.5-4.7c-1.6,0.8-3.7,2.5-6.1,5.2
		c-2.4,2.7-4,4.7-4.8,6.2c-0.8,1.5-1.3,2.7-1.5,3.6c-0.2,0.9-0.5,1.4-0.8,1.4c-0.3,0-0.5-0.3-0.5-0.8V417H-222.3z M-218,398.1
		c-0.2,0.2-0.6,0.4-1.1,0.6l0.6,1.4L-218,398.1z"/>
</g>
<g>
	<path class="st1" d="M-189.6,404.9l0.2-1.1c0-0.6-0.2-1.2-0.6-1.6s-0.9-0.6-1.5-0.6c-0.5,4.9-1.7,8.6-3.5,11.2h1.9
		c-0.5,0.3-0.9,0.5-1.2,0.5s-0.4,0-0.5-0.1c-0.1,0-0.2-0.1-0.3-0.1c0,0-0.1,0.2-0.3,0.4c-0.3,0.2-1,0.9-2.3,1.9
		c-1.2,1.1-2.4,1.6-3.5,1.6c-1.6,0-2.3-1-2.3-3c0-2.4,0.9-4.9,2.8-7.5c-0.6-1.6-1-3.2-1-4.9c0-1.7,0.3-3.2,1-4.5
		c1.3-2.5,3-3.8,4.9-3.8c2.5,0,3.9,2.1,4.3,6.4c2,0.1,3,1.1,3,3.1c0,1.6-0.3,2.5-0.8,2.5C-189.5,405.3-189.6,405.1-189.6,404.9z
		 M-200.4,408c-1.3,2.2-2,4-2,5.3s0.4,2,1.3,2c1.1,0,2.4-0.8,3.9-2.5C-198.5,412.6-199.6,411-200.4,408z M-195.8,394.6
		c-1.3,0-2.5,1.3-3.5,3.8c-0.7,1.5-1,3-1,4.4s0.1,2.4,0.2,3.1c2.4-3.3,5-5.3,7.7-6.1C-193.3,396.4-194.4,394.6-195.8,394.6z
		 M-192.4,401.5c-0.9,0.1-2.3,0.9-4.1,2.4s-3,2.7-3.5,3.6c0.8,3,1.9,4.7,3.1,5c1-0.9,2-2.6,3-5.2
		C-193,404.6-192.4,402.6-192.4,401.5z"/>
	<path class="st1" d="M-172.3,386.3c-0.3,0.2-0.7,0.5-1.1,0.9c-7.4,13.7-11,22.5-11,26.5c0,1.3,0.4,2,1.3,2c1.1,0,2.7-0.9,4.7-2.6
		c0.3-0.3,0.5-0.5,0.7-0.6c0.1-0.1,0.2-0.2,0.1-0.2c0.2,0,0.2,0.1,0.2,0.2s-0.1,0.3-0.2,0.5c-1.8,2.5-3.6,3.7-5.4,3.7
		c-2,0-3-1.1-3-3.2s1-5.9,3.1-11.5c-1,1.4-1.7,2-2.1,2c-0.1,0-0.2,0-0.2-0.1s0.5-0.8,1.6-2.2c1.1-1.4,1.6-2.1,1.7-2.3
		c1.2-3.6,3.1-7.9,5.6-13c2.5-5,4.2-8.4,5.1-10.1c0.3-0.7,1-1,2-1s1.5,0.1,1.5,0.4C-167.7,376.1-169.3,379.6-172.3,386.3z"/>
	<path class="st1" d="M-157.9,408.6c0.1,0,0.2,0.1,0.2,0.3s-0.1,0.4-0.2,0.6c-3.6,5.4-6.4,8-8.3,8c-1.1,0-1.9-0.5-2.4-1.5
		s-0.8-2.2-0.8-3.4c0-1.3,0.2-2.7,0.6-4.4c-2.5,5.6-5.1,8.4-7.8,8.4c-1.6,0-2.5-1.1-2.5-3.2c0-3.4,1.6-6.9,4.9-10.6s6.6-5.5,9.9-5.5
		c1.6,0,2.3,0.7,2.3,2c0,1.7-1.1,3.4-3.4,5c-1.2,2.9-1.7,5.6-1.7,8.3c0,2.7,0.5,4,1.5,4c1.3,0,3.7-2.5,7.2-7.6
		C-158.2,408.8-158,408.6-157.9,408.6z M-164.8,402.3c0.6-0.9,1-1.8,1-2.6c0-0.9-0.4-1.3-1.3-1.3c-2,0-4.6,2-7.9,5.9
		c-3.2,3.9-4.9,7-4.9,9.1c0,0.9,0.4,1.4,1.3,1.4c2.5,0,5-2.8,7.3-8.4c-0.7,0.2-1.2,0.3-1.4,0.3c-0.2,0-0.4-0.1-0.4-0.2
		c0-0.2,0.3-0.4,0.8-0.6l1.9-1.1c0.1-0.7,0.5-1.6,1.3-2.7s1.5-1.7,2.2-1.7c0.2,0,0.4,0.2,0.4,0.5
		C-164.5,401.3-164.6,401.6-164.8,402.3z"/>
</g>
</svg>
