<?xml version="1.0" encoding="utf-8"?><svg xmlns="http://www.w3.org/2000/svg" xmlns:xlink="http://www.w3.org/1999/xlink"><symbol viewBox="0 0 384.97 384.97" id="check-arrow"><path d="M192.485 0C86.173 0 0 86.173 0 192.485S86.173 384.97 192.485 384.97c106.3 0 192.485-86.185 192.485-192.485C384.97 86.173 298.785 0 192.485 0zm0 360.909c-93.018 0-168.424-75.406-168.424-168.424S99.467 24.061 192.485 24.061s168.424 75.406 168.424 168.424-75.406 168.424-168.424 168.424z"/><path d="M280.306 125.031L156.538 247.692l-51.502-50.479c-4.74-4.704-12.439-4.704-17.179 0a11.931 11.931 0 0 0 0 17.011l60.139 58.936c4.932 4.343 12.307 4.824 17.179 0l132.321-131.118a11.952 11.952 0 0 0 0-17.011c-4.751-4.692-12.438-4.692-17.19 0z"/></symbol><symbol viewBox="0 0 384.97 384.97" id="close-arrow"><path d="M192.485 0C86.173 0 0 86.173 0 192.485c0 106.3 86.173 192.485 192.485 192.485 106.3 0 192.485-86.173 192.485-192.485S298.785 0 192.485 0zm0 360.909c-93.018 0-168.424-75.406-168.424-168.424S99.467 24.061 192.485 24.061s168.424 75.406 168.424 168.424-75.406 168.424-168.424 168.424z"/><path d="M273.437 255.897l-63.376-63.388 63.015-62.497a11.931 11.931 0 0 0 0-17.011c-4.74-4.692-12.439-4.692-17.179 0l-62.931 62.413-63.869-63.881c-4.74-4.764-12.439-4.764-17.179 0-4.74 4.752-4.74 12.475 0 17.227l63.773 63.785-64.134 63.604c-4.74 4.704-4.74 12.319 0 17.011 4.74 4.704 12.439 4.704 17.191 0l64.049-63.52 63.472 63.472c4.74 4.764 12.439 4.764 17.179 0 4.729-4.74 4.729-12.451-.011-17.215z"/></symbol><symbol id="codepen" viewBox="0 0 28.9 28.9"><style>.cst0{fill:#272624}.cst1{fill:#fff}</style><path class="cst0" d="M28.9 22.4c0 3.6-2.9 6.5-6.5 6.5H6.5C2.9 28.9 0 26 0 22.4V6.5C0 2.9 2.9 0 6.5 0h15.9c3.6 0 6.5 2.9 6.5 6.5v15.9z"/><path class="cst1" d="M15 6.8c-.4-.3-1-.3-1.4 0l-6.3 4.4c-.3.2-.5.6-.5 1v4.7c0 .4.2.8.6 1l6.4 4.2c.4.3 1 .3 1.4 0l6.5-4.3c.3-.2.6-.6.6-1v-4.6c0-.4-.2-.8-.6-1L15 6.8zm4.8 5.1l-2.4 1.6-2.2-1.6V8.7l4.6 3.2zm-6.3-3.3v3.1l-2.3 1.6-2.3-1.5 4.6-3.2zm-5.2 4.8l1.5 1-1.5 1v-2zm5.3 6.7L8.9 17l2.3-1.6 2.3 1.6c.1-.1.1 3.1.1 3.1zm-.9-5.7l1.5-1 1.7 1.1-1.5 1-1.7-1.1zm2.5 5.7v-3.2l2.2-1.5 2.4 1.6-4.6 3.1zm5.3-4.6l-1.6-1 1.6-1.1v2.1z"/></symbol><symbol viewBox="0 0 453.834 453.834" id="down-arrow"><path d="M226.932 0C101.625 0 .03 101.595.03 226.902 0 352.269 101.595 453.834 226.932 453.834c125.307 0 226.871-101.595 226.871-226.902C453.834 101.595 352.239 0 226.932 0zm0 423.465c-108.344 0-196.502-88.158-196.502-196.502S118.588 30.46 226.932 30.46c108.344-.03 196.472 88.128 196.472 196.502.03 108.314-88.128 196.503-196.472 196.503z"/><path d="M313.723 177.199l-87.885 87.915-87.885-87.915c-5.928-5.928-15.565-5.928-21.492 0s-5.928 15.565 0 21.492l98.585 98.585c2.979 3.04 6.901 4.438 10.792 4.438 3.922 0 7.813-1.49 10.792-4.438l98.555-98.585c5.928-5.928 5.928-15.565 0-21.492s-15.535-5.928-21.462 0z"/></symbol><symbol viewBox="0 0 374.117 374.117" id="download"><path d="M344.059 207.508c-16.568 0-30 13.432-30 30v76.609h-254v-76.609c0-16.568-13.432-30-30-30s-30 13.432-30 30v106.609c0 16.568 13.432 30 30 30h314c16.568 0 30-13.432 30-30V237.508c0-16.569-13.432-30-30-30z"/><path d="M250.547 108.287l-33.488 33.488V30c0-16.568-13.432-30-30-30s-30 13.432-30 30v111.775l-33.488-33.488c-5.857-5.857-13.535-8.787-21.213-8.787-7.678 0-15.355 2.93-21.213 8.787-11.715 11.717-11.715 30.711 0 42.426l84.701 84.701c11.715 11.717 30.711 11.717 42.426 0l84.701-84.701c11.717-11.715 11.717-30.709 0-42.426-11.715-11.717-30.711-11.717-42.426 0z"/></symbol><symbol id="github" viewBox="0 0 28.9 28.9"><style>.fst0{fill:#b5b2bb}.fst1{fill:#1d202e}</style><path class="fst0" d="M28.9 22.4c0 3.6-2.9 6.5-6.5 6.5H6.5C2.9 28.9 0 26 0 22.4V6.5C0 2.9 2.9 0 6.5 0h15.9c3.6 0 6.5 2.9 6.5 6.5v15.9z"/><path class="fst1" d="M14.4 19.2c-.3 0-.6-.1-.9-.4-.1-.1-.1-.3 0-.4.1-.1.3-.1.4 0 .2.2.3.3.4.3.1 0 .3-.1.4-.3.1-.1.3-.1.4 0 .1.1.1.3 0 .4-.1.3-.4.4-.7.4zm-7.6-4.6c0 .7.1 1.4.2 2s.3 1.1.5 1.6c.2.4.5.8.9 1.2.4.3.7.6 1.2.8.4.2.9.4 1.4.5.5.1 1.1.2 1.6.3.6.1 1.2.1 1.8.1s1.3 0 1.8-.1c.6-.1 1.1-.1 1.6-.3.5-.1 1-.3 1.4-.5.4-.2.8-.5 1.2-.8.4-.3.7-.7.9-1.2.2-.4.4-1 .5-1.6.1-.6.2-1.3.2-2 0-1.3-.4-2.5-1.2-3.5 0-.1.1-.3.1-.4 0-.2.1-.4.1-.7V8.9l-.3-1.2h-.5c-.2 0-.4.1-.6.1-.3.2-.6.3-.9.5-.4.2-.8.5-1.2.8-.7-.2-1.7-.5-3-.5s-2.3.2-3 .5c-.4-.3-.8-.6-1.2-.8-.5-.2-.8-.3-1-.4-.2-.1-.5-.1-.7-.2h-.5c-.1.5-.2.9-.3 1.3-.1.4-.1.7 0 1 0 .3.1.5.1.7 0 .2.1.3.1.4-.8 1-1.2 2.2-1.2 3.5zm2 1.7c0-.9.3-1.7 1-2.4.2-.2.4-.4.7-.5.3-.1.5-.2.9-.2h.9c.3 0 .7 0 1.1.1.4 0 .8.1 1.1.1.3 0 .7 0 1.1-.1.4 0 .8-.1 1.1-.1h.9c.3 0 .6.1.9.2.3.1.5.3.7.5.6.7 1 1.5 1 2.4 0 .5-.1 1-.2 1.4-.1.4-.2.7-.4 1-.2.3-.4.5-.7.7-.3.2-.6.3-.9.4-.3.1-.6.2-1.1.2-.4.1-.8.1-1.2.1h-2.6c-.3 0-.7 0-1.2-.1-.4-.1-.8-.1-1.1-.2-.3-.1-.6-.2-.9-.4-.3-.2-.5-.4-.7-.7-.2-.3-.3-.6-.4-1 .1-.4 0-.8 0-1.4zm1.8-.4c0 .8.4 1.4 1 1.4.5 0 1-.6 1-1.4s-.4-1.4-1-1.4-1 .6-1 1.4zm5.8 0c0 .8.4 1.4 1 1.4s1-.6 1-1.4-.4-1.4-1-1.4-1 .6-1 1.4z"/></symbol><symbol id="google-plus" viewBox="0 0 28.9 28.9"><style>.gst0{fill:#d94d54}.gst1{fill:#fff}</style><path class="gst0" d="M28.9 22.4c0 3.6-2.9 6.5-6.5 6.5H6.5C2.9 28.9 0 26 0 22.4V6.5C0 2.9 2.9 0 6.5 0h15.9c3.6 0 6.5 2.9 6.5 6.5v15.9z"/><path class="gst1" d="M12.2 13.3c0 .1 0 .1 0 0v2.5h3.3c0 .2-.3 1.2-1.2 1.8-.5.4-1.1.5-1.8.6-.5 0-.9 0-1.3-.2-1.4-.4-2.4-1.7-2.5-3.2 0-.4 0-.7.1-1.1.4-1.8 2.1-3.1 4-2.8.9.1 1.4.5 1.8.9l1.8-1.8c-.1-.1-.5-.4-1.1-.8-.9-.5-1.9-.8-2.9-.8h-.6c-.3 0-.7.1-1 .2-1.3.3-2.4 1-3.3 2.1-.8 1-1.3 2.2-1.4 3.5 0 .6 0 1.1.1 1.7.3 1.5 1.1 2.7 2.4 3.7 1 .7 2.1 1.1 3.3 1.2.7 0 1.3 0 2-.2 1.2-.3 2.2-1 3-2 1.1-1.5 1.4-3.4 1.1-5.2-2-.1-3.9-.1-5.8-.1zm13.2.1h-2.1v-2.1h-1.7v2.1h-2.1v1.7h2.1v2.1h1.7v-2.1h2.1v-1.7z"/></symbol><symbol id="instagram" viewBox="0 0 28.9 28.9"><style>.hst0{fill:#715644}.hst1{fill-rule:evenodd;clip-rule:evenodd;fill:#fff}</style><path class="hst0" d="M28.9 22.4c0 3.6-2.9 6.5-6.5 6.5H6.5C2.9 28.9 0 26 0 22.4V6.5C0 2.9 2.9 0 6.5 0h15.9c3.6 0 6.5 2.9 6.5 6.5v15.9z"/><path class="hst1" d="M19.3 7.3H9.5c-1.2 0-2.2 1-2.2 2.2v9.8c0 1.2 1 2.2 2.2 2.2h9.8c1.2 0 2.2-1 2.2-2.2V9.5c.1-1.2-.9-2.2-2.2-2.2zm-1.8 2c0-.2.2-.4.4-.4h1.7c.2 0 .4.2.4.4V11c0 .2-.2.4-.4.4h-1.7c-.2 0-.4-.2-.4-.4V9.3zm-5.7 4.1c.4-1 1.4-1.8 2.6-1.8 1.2 0 2.2.7 2.6 1.8.1.3.2.7.2 1 0 1.6-1.3 2.8-2.8 2.8-1.6 0-2.8-1.3-2.8-2.8 0-.3.1-.7.2-1zm8.3 5.9c0 .4-.3.7-.7.7H9.5c-.4 0-.7-.3-.7-.7v-5.9h1.4c-.1.3-.1.7-.1 1 0 2.4 1.9 4.3 4.3 4.3s4.3-1.9 4.3-4.3c0-.4 0-.7-.1-1H20v5.9z"/></symbol><symbol viewBox="0 0 44.934 44.934" id="laptop"><path d="M39.917 6.267H5.023v23.01h34.894V6.267zm-3.538 19.472H8.56V9.803h27.819v15.936zm-9.11 11.416H0v1.512h44.934v-1.512zm12.641-6.81H5.023L.27 36.695h44.395l-4.755-6.35zm-5.016 1.166h1.919v.958h-1.919v-.958zm3.104 1.529v.958h-1.9v-.958h1.9zm-2.377 0v.958h-1.918v-.958h1.918zm-3.351-1.529h1.918v.958H32.27v-.958zm.728 1.529v.958H31.08v-.958h1.918zm-3.41-1.529h1.918v.958h-1.918v-.958zm.728 1.529v.958h-1.918v-.958h1.918zm-3.474-1.529h1.918v.958h-1.918v-.958zm-2.682 0h1.918v.958H24.16v-.958zm.727 1.529v.958h-1.918v-.958h1.918zm-3.351-1.529h1.917v.958h-1.917v-.958zm.727 1.529v.958h-1.918v-.958h1.918zm-3.409-1.529h1.918v.958h-1.918v-.958zm.728 1.529v.958h-1.918v-.958h1.918zm-3.468-1.529h1.918v.958h-1.918v-.958zm.728 1.529v.958h-1.918v-.958h1.918zm-3.409-1.529h1.918v.958h-1.918v-.958zm.727 1.529v.958h-1.918v-.958h1.918zm-3.351-1.529h1.918v.958h-1.918v-.958zm.728 1.529v.958H9.619v-.958h1.918zm-3.41-1.529h1.918v.958H8.127v-.958zM6.936 33.04h1.919v.958H6.936v-.958zm.373 2.406H5.391v-.959h1.918v.959zm2.451 0H7.842v-.959H9.76v.959zm2.682 0h-1.918v-.959h1.918v.959zm2.624 0h-1.919v-.959h1.918l.001.959zm2.681 0h-1.918v-.959h1.918v.959zm7.878 0h-7.056v-.959h7.056v.959zm.025-2.406h1.918v.958H25.65v-.958zm2.824 2.406h-1.918v-.959h1.918v.959zm2.747 0h-1.918v-.959h1.918v.959zm2.681 0h-1.918v-.959h1.918v.959zm2.625 0h-1.918v-.959h1.918v.959zm2.422 0h-1.918v-.959h1.918v.959z"/></symbol><symbol viewBox="-297 389 16 16" id="list-menu"><path d="M-282 390v2h-14v-2h14m1-1h-16v4h16v-4zm-1 7v2h-14v-2h14m1-1h-16v4h16v-4zm-1 7v2h-14v-2h14m1-1h-16v4h16v-4z"/></symbol><symbol viewBox="0 0 60 60" id="map-marker"><path d="M42.117 43.007a1 1 0 0 0-.234 1.986C52.399 46.231 58 49.567 58 51.5c0 2.714-10.652 6.5-28 6.5S2 54.214 2 51.5c0-1.933 5.601-5.269 16.117-6.507a1 1 0 0 0-.234-1.986C7.354 44.247 0 47.739 0 51.5 0 55.724 10.305 60 30 60s30-4.276 30-8.5c0-3.761-7.354-7.253-17.883-8.493z"/><path d="M29.823 54.757L45.164 32.6c5.754-7.671 4.922-20.28-1.781-26.982C39.761 1.995 34.945 0 29.823 0s-9.938 1.995-13.56 5.617c-6.703 6.702-7.535 19.311-1.804 26.952l15.364 22.188zM30 12c3.86 0 7 3.141 7 7s-3.14 7-7 7-7-3.141-7-7 3.14-7 7-7z"/></symbol><symbol viewBox="0 0 384.97 384.97" id="menu"><path d="M12.03 84.212h360.909c6.641 0 12.03-5.39 12.03-12.03 0-6.641-5.39-12.03-12.03-12.03H12.03C5.39 60.152 0 65.541 0 72.182c0 6.641 5.39 12.03 12.03 12.03zm360.909 96.243H12.03c-6.641 0-12.03 5.39-12.03 12.03s5.39 12.03 12.03 12.03h360.909c6.641 0 12.03-5.39 12.03-12.03s-5.389-12.03-12.03-12.03zm0 120.303H12.03c-6.641 0-12.03 5.39-12.03 12.03 0 6.641 5.39 12.03 12.03 12.03h360.909c6.641 0 12.03-5.39 12.03-12.03.001-6.641-5.389-12.03-12.03-12.03z"/></symbol><symbol viewBox="0 0 487.958 487.958" id="next"><path d="M483.058 215.613l-215.5-177.6c-4-3.3-9.6-4-14.3-1.8-4.7 2.2-7.7 7-7.7 12.2v93.6c-104.6 3.8-176.5 40.7-213.9 109.8-32.2 59.6-31.9 130.2-31.6 176.9v10.8c0 6.1 4.1 11.5 10.1 13.1 1.1.3 2.3.4 3.4.4 4.8 0 9.3-2.5 11.7-6.8 73-128.7 133.1-134.9 220.2-135.2v93.3c0 5.2 3 10 7.8 12.2s10.3 1.5 14.4-1.8l215.4-178.2c3.1-2.6 4.9-6.4 4.9-10.4s-1.8-7.9-4.9-10.5zm-210.5 160v-78.1c0-3.6-1.4-7-4-9.5-2.5-2.5-6-4-9.5-4-54.4 0-96.1 1.5-136.6 20.4-35 16.3-65.3 44-95.2 87.5 1.2-39.7 6.4-87.1 28.1-127.2 34.4-63.6 101-95.1 203.7-96 7.4-.1 13.4-6.1 13.4-13.5v-78.2l180.7 149.1-180.6 149.5z"/></symbol><symbol viewBox="0 0 612 612" id="plus-round"><path d="M306 0C136.992 0 0 136.992 0 306s136.992 306 306 306 306-137.012 306-306S475.008 0 306 0zm0 573.75C158.125 573.75 38.25 453.875 38.25 306S158.125 38.25 306 38.25 573.75 158.125 573.75 306 453.875 573.75 306 573.75zm114.75-286.875h-95.625V191.25c0-10.557-8.568-19.125-19.125-19.125s-19.125 8.568-19.125 19.125v95.625H191.25c-10.557 0-19.125 8.568-19.125 19.125s8.568 19.125 19.125 19.125h95.625v95.625c0 10.557 8.568 19.125 19.125 19.125s19.125-8.568 19.125-19.125v-95.625h95.625c10.557 0 19.125-8.568 19.125-19.125s-8.568-19.125-19.125-19.125z"/></symbol><symbol id="skype" viewBox="0 0 28.9 28.9"><style>.ost0{fill:#5a90c4}.ost1{fill-rule:evenodd;clip-rule:evenodd;fill:#fff}</style><path class="ost0" d="M28.9 22.4c0 3.6-2.9 6.5-6.5 6.5H6.5C2.9 28.9 0 26 0 22.4V6.5C0 2.9 2.9 0 6.5 0h15.9c3.6 0 6.5 2.9 6.5 6.5v15.9z"/><path class="ost1" d="M21.1 15.6c.1-.4.1-.7.1-1.1 0-3.8-3-6.8-6.8-6.8-.4 0-.7 0-1.1.1-.6-.4-1.4-.7-2.2-.7-2.2 0-3.9 1.8-3.9 3.9 0 .7.2 1.4.6 2-.1.5-.1.9-.1 1.4 0 3.8 3 6.8 6.8 6.8.5 0 1-.1 1.4-.2.6.3 1.3.5 2 .5 2.2 0 3.9-1.8 3.9-3.9-.1-.6-.3-1.4-.7-2zm-4.7 2.8c-.9.4-2.3.4-3.3.2-1.4-.3-2-1.1-2.1-1.8-.2-1 .9-1.3 1.5-.6.1.2.3.3.4.5.8.9 2.4.8 2.9.1.2-.3.2-.7 0-1-.2-.3-.5-.3-2.9-.9-2.3-.6-2.2-2.6-1.6-3.6.5-.8 1.6-1.1 2.5-1.2 1.7-.1 3.5.7 3.7 1.7.1.4-.2.8-.6.9-.6.1-.8-.3-1.2-.6-.7-.8-2.1-.7-2.6-.3-.4.3-.4.9-.1 1.2.6.5 2.5.6 3.4 1 1 .4 1.4 1.2 1.4 2.1.1 1.1-.4 1.9-1.4 2.3z"/></symbol><symbol viewBox="0 0 16 16" id="square-menu"><path d="M0 7h7V0H0v7zm1-6h5v5H1V1zm8-1v7h7V0H9zm6 6h-5V1h5v5zM0 16h7V9H0v7zm1-6h5v5H1v-5zm8 6h7V9H9v7zm1-6h5v5h-5v-5z"/></symbol><symbol id="telegram" viewBox="0 0 28.9 28.9"><style>.qst0{fill:#68a6de}.qst1{fill:#eaeff2}.qst2{fill:#e1e6e9}.qst3{fill:#d5d6db}</style><path class="qst0" d="M28.9 22.4c0 3.6-2.9 6.5-6.5 6.5H6.5C2.9 28.9 0 26 0 22.4V6.5C0 2.9 2.9 0 6.5 0h15.9c3.6 0 6.5 2.9 6.5 6.5v15.9z"/><path class="qst1" d="M6.8 14.1l15.2-5-3.1 9.5z"/><path class="qst2" d="M22 9.1l-10.2 6.8 2.2.8z"/><path class="qst3" d="M11.8 19.8v-3.9l2.2.8z"/><path class="qst2" d="M11.8 19.8l3.6-2.5-1.4-.6"/></symbol><symbol id="vk" viewBox="0 0 28.9 28.9"><style>.rst0{fill:#5b74b2}.rst1{fill:#fff}</style><path class="rst0" d="M28.9 22.4c0 3.6-2.9 6.5-6.5 6.5H6.5C2.9 28.9 0 26 0 22.4V6.5C0 2.9 2.9 0 6.5 0h15.9c3.6 0 6.5 2.9 6.5 6.5v15.9z"/><path class="rst1" d="M22.9 18.4s0-.1-.1-.1c-.3-.5-.9-1.2-1.7-2l-.7-.7c-.2-.2-.2-.5-.1-.7.1-.2.3-.6.8-1.2.2-.3.4-.6.6-.8 1-1.4 1.5-2.2 1.3-2.6l-.1-.1c0-.1-.1-.1-.3-.1-.1 0-.3-.1-.6 0h-2.9s-.1 0-.1.1c0 0-.1.1-.1.2-.3.7-.6 1.4-1 2-.2.4-.4.7-.6 1-.2.3-.3.5-.5.6l-.3.3c-.1.1-.2.1-.2.1h-.2c-.1-.1-.2-.1-.2-.2-.1-.1-.1-.2-.1-.3v-3.4c0-.1-.1-.2-.1-.3 0-.1-.1-.2-.2-.2-.1-.1-.2-.1-.3-.1-.3-.1-.7-.1-1.2-.1-1.1 0-1.8.1-2.1.2l-.3.3c-.1.1-.1.2 0 .2.4.1.6.2.8.4l.1.1c0 .1.1.2.1.4s.1.4.1.7v1.1c0 .3-.1.5-.1.7 0 .2-.1.3-.1.4-.1.1-.1.2-.1.2h-.2c-.1 0-.2 0-.3-.1-.1-.1-.2-.2-.4-.3-.1-.1-.3-.3-.4-.6-.2-.3-.3-.6-.5-.9l-.1-.3c-.1-.2-.2-.4-.4-.7-.2-.3-.3-.6-.4-.9 0-.1-.1-.2-.2-.3 0 0-.1 0-.1-.1C9 10 9 10 8.9 10H6.5c-.2 0-.4.1-.5.2v.2c0 .1 0 .1.1.2.4.8.7 1.6 1.2 2.4.4.8.8 1.4 1.1 1.9.3.5.6.9.9 1.3.3.4.5.7.6.8.1.1.2.2.2.3l.2.2c.1.1.4.3.6.5l.9.6c.3.2.7.4 1.2.5.4.1.9.2 1.3.1h1c.2 0 .4-.1.5-.2 0 0 0-.1.1-.2v-.2c0-.3 0-.5.1-.7 0-.2.1-.4.2-.5.1-.1.1-.2.2-.3.1-.1.1-.1.2-.1h.1c.1 0 .3 0 .5.1s.4.3.5.5c.2.2.4.4.6.7.2.3.4.4.6.6l.2.1c.1.1.3.1.5.2s.4.1.5 0h2.3c.2 0 .4 0 .5-.1l.2-.2v-.3c-.2-.1-.2-.2-.2-.2z"/></symbol><symbol id="whatsapp" viewBox="0 0 28.9 28.9"><style>.sst0{fill:#60975d}.sst1{fill-rule:evenodd;clip-rule:evenodd;fill:#fff}</style><path class="sst0" d="M28.9 22.4c0 3.6-2.9 6.5-6.5 6.5H6.5C2.9 28.9 0 26 0 22.4V6.5C0 2.9 2.9 0 6.5 0h15.9c3.6 0 6.5 2.9 6.5 6.5v15.9z"/><path class="sst1" d="M7.1 21.8c.1-.3.2-.6.2-.9.2-.9.5-1.8.7-2.7v-.4c-2.3-4.3.1-9.5 4.8-10.6 4.3-1 8.2 1.9 8.9 5.8.7 4-1.9 7.9-5.9 8.6-1.6.3-3.1 0-4.6-.7-.1-.1-.3-.1-.5 0-1.9.5-3.2.8-3.6.9zm1.7-1.7c.7-.2 1.4-.4 2.1-.5.2-.1.3 0 .5.1 1.3.7 2.6 1 4.1.8 3.3-.5 5.6-3.6 5.1-7-.6-3.5-3.8-5.8-7.2-5.1-4.1.8-6.3 5.3-4.3 9 .2.4.3.7.1 1.2-.1.4-.2 1-.4 1.5z"/><path class="sst1" d="M16.4 17.9c-1.4-.1-3.7-1.2-5.3-3.9-.6-1-.5-2.1.3-2.8.3-.3.6-.2.9-.1.1 0 .2.1.2.2.2.5.4.9.6 1.4.1.3-.1.5-.5.9-.1.1-.1.3 0 .4.6 1 1.4 1.8 2.5 2.2.2.1.3 0 .4-.1.6-.7.6-.9 1-.8 1.5.7 1.6.7 1.6.9.1 1.3-1 1.7-1.7 1.7z"/></symbol></svg>