<?xml version="1.0" encoding="utf-8"?>
<!-- Generator: Adobe Illustrator 19.1.1, SVG Export Plug-In . SVG Version: 6.00 Build 0)  -->
<svg version="1.1" id="Слой_1" xmlns="http://www.w3.org/2000/svg" xmlns:xlink="http://www.w3.org/1999/xlink" x="0px" y="0px"
	 viewBox="0 0 28.9 28.9" style="enable-background:new 0 0 28.9 28.9;" xml:space="preserve">
<style type="text/css">
	.st0{fill:#d94d54;}
	.st1{fill:#FFFFFF;}
</style>
<g>
	<path class="st0" d="M28.9,22.4c0,3.6-2.9,6.5-6.5,6.5H6.5C2.9,28.9,0,26,0,22.4V6.5C0,2.9,2.9,0,6.5,0h15.9c3.6,0,6.5,2.9,6.5,6.5
		V22.4z"/>
	<g>
		<path class="st1" d="M12.2,13.3C12.2,13.4,12.2,13.4,12.2,13.3c0,0.8,0,2.5,0,2.5s3.1,0,3.3,0c0,0.2-0.3,1.2-1.2,1.8
			c-0.5,0.4-1.1,0.5-1.8,0.6c-0.5,0-0.9,0-1.3-0.2c-1.4-0.4-2.4-1.7-2.5-3.2c0-0.4,0-0.7,0.1-1.1c0.4-1.8,2.1-3.1,4-2.8
			c0.9,0.1,1.4,0.5,1.8,0.9c0.6-0.6,1.2-1.2,1.8-1.8c-0.1-0.1-0.5-0.4-1.1-0.8c-0.9-0.5-1.9-0.8-2.9-0.8c-0.2,0-0.4,0-0.6,0
			c-0.3,0-0.7,0.1-1,0.2c-1.3,0.3-2.4,1-3.3,2.1c-0.8,1-1.3,2.2-1.4,3.5c0,0.6,0,1.1,0.1,1.7c0.3,1.5,1.1,2.7,2.4,3.7
			c1,0.7,2.1,1.1,3.3,1.2c0.7,0,1.3,0,2-0.2c1.2-0.3,2.2-1,3-2c1.1-1.5,1.4-3.4,1.1-5.2C16,13.3,14.1,13.3,12.2,13.3z"/>
		<polygon class="st1" points="25.4,13.4 23.3,13.4 23.3,11.3 23.3,11.3 23.2,11.3 21.7,11.3 21.6,11.3 21.6,11.3 21.6,13.4 
			19.5,13.4 19.5,13.4 19.5,13.5 19.5,15 19.5,15.1 19.5,15.1 21.6,15.1 21.6,17.1 21.6,17.2 21.7,17.2 23.2,17.2 23.3,17.2 
			23.3,17.1 23.3,15.1 25.4,15.1 25.4,15.1 25.4,15 25.4,13.5 25.4,13.4 		"/>
	</g>
</g>
</svg>
