<?xml version="1.0" encoding="utf-8"?>
<!-- Generator: Adobe Illustrator 19.1.1, SVG Export Plug-In . SVG Version: 6.00 Build 0)  -->
<svg version="1.1" id="Слой_1" xmlns="http://www.w3.org/2000/svg" xmlns:xlink="http://www.w3.org/1999/xlink" x="0px" y="0px"
	 viewBox="0 0 28.9 28.9" style="enable-background:new 0 0 28.9 28.9;" xml:space="preserve">
<style type="text/css">
	.st0{fill:#715644;}
	.st1{fill-rule:evenodd;clip-rule:evenodd;fill:#FFFFFF;}
</style>
<g>
	<path class="st0" d="M28.9,22.4c0,3.6-2.9,6.5-6.5,6.5H6.5C2.9,28.9,0,26,0,22.4V6.5C0,2.9,2.9,0,6.5,0h15.9c3.6,0,6.5,2.9,6.5,6.5
		V22.4z"/>
	<path class="st1" d="M19.3,7.3H9.5c-1.2,0-2.2,1-2.2,2.2v9.8c0,1.2,1,2.2,2.2,2.2h9.8c1.2,0,2.2-1,2.2-2.2V9.5
		C21.6,8.3,20.6,7.3,19.3,7.3z M17.5,9.3c0-0.2,0.2-0.4,0.4-0.4h1.7c0.2,0,0.4,0.2,0.4,0.4V11c0,0.2-0.2,0.4-0.4,0.4h-1.7
		c-0.2,0-0.4-0.2-0.4-0.4V9.3z M11.8,13.4c0.4-1,1.4-1.8,2.6-1.8c1.2,0,2.2,0.7,2.6,1.8c0.1,0.3,0.2,0.7,0.2,1
		c0,1.6-1.3,2.8-2.8,2.8c-1.6,0-2.8-1.3-2.8-2.8C11.6,14.1,11.7,13.7,11.8,13.4z M20.1,19.3c0,0.4-0.3,0.7-0.7,0.7H9.5
		c-0.4,0-0.7-0.3-0.7-0.7v-5.9h1.4c-0.1,0.3-0.1,0.7-0.1,1c0,2.4,1.9,4.3,4.3,4.3c2.4,0,4.3-1.9,4.3-4.3c0-0.4,0-0.7-0.1-1h1.4V19.3
		z"/>
</g>
</svg>
