<?xml version="1.0" encoding="utf-8"?>
<!-- Generator: Adobe Illustrator 19.1.1, SVG Export Plug-In . SVG Version: 6.00 Build 0)  -->
<svg version="1.1" id="Слой_1" xmlns="http://www.w3.org/2000/svg" xmlns:xlink="http://www.w3.org/1999/xlink" x="0px" y="0px"
	 viewBox="0 0 28.9 28.9" style="enable-background:new 0 0 28.9 28.9;" xml:space="preserve">
<style type="text/css">
	.st0{fill:#5B74B2;}
	.st1{fill:#FFFFFF;}
</style>
<path class="st0" d="M28.9,22.4c0,3.6-2.9,6.5-6.5,6.5H6.5C2.9,28.9,0,26,0,22.4V6.5C0,2.9,2.9,0,6.5,0h15.9c3.6,0,6.5,2.9,6.5,6.5
	V22.4z"/>
<g>
	<path class="st1" d="M22.9,18.4c0,0,0-0.1-0.1-0.1c-0.3-0.5-0.9-1.2-1.7-2l0,0l0,0l0,0h0c-0.4-0.4-0.6-0.6-0.7-0.7
		c-0.2-0.2-0.2-0.5-0.1-0.7c0.1-0.2,0.3-0.6,0.8-1.2c0.2-0.3,0.4-0.6,0.6-0.8c1-1.4,1.5-2.2,1.3-2.6l-0.1-0.1c0-0.1-0.1-0.1-0.3-0.1
		c-0.1,0-0.3-0.1-0.6,0l-2.6,0c0,0-0.1,0-0.2,0c-0.1,0-0.1,0-0.1,0l0,0l0,0c0,0-0.1,0-0.1,0.1c0,0-0.1,0.1-0.1,0.2
		c-0.3,0.7-0.6,1.4-1,2c-0.2,0.4-0.4,0.7-0.6,1c-0.2,0.3-0.3,0.5-0.5,0.6c-0.1,0.1-0.2,0.2-0.3,0.3c-0.1,0.1-0.2,0.1-0.2,0.1
		c-0.1,0-0.1,0-0.2,0c-0.1-0.1-0.2-0.1-0.2-0.2c-0.1-0.1-0.1-0.2-0.1-0.3c0-0.1,0-0.3,0-0.4c0-0.1,0-0.2,0-0.4c0-0.2,0-0.3,0-0.4
		c0-0.2,0-0.5,0-0.7c0-0.3,0-0.5,0-0.6c0-0.2,0-0.3,0-0.5s0-0.3,0-0.4c0-0.1-0.1-0.2-0.1-0.3c0-0.1-0.1-0.2-0.2-0.2
		c-0.1-0.1-0.2-0.1-0.3-0.1c-0.3-0.1-0.7-0.1-1.2-0.1c-1.1,0-1.8,0.1-2.1,0.2c-0.1,0.1-0.2,0.2-0.3,0.3c-0.1,0.1-0.1,0.2,0,0.2
		c0.4,0.1,0.6,0.2,0.8,0.4l0.1,0.1c0,0.1,0.1,0.2,0.1,0.4c0,0.2,0.1,0.4,0.1,0.7c0,0.4,0,0.8,0,1.1c0,0.3-0.1,0.5-0.1,0.7
		c0,0.2-0.1,0.3-0.1,0.4c-0.1,0.1-0.1,0.2-0.1,0.2c0,0,0,0,0,0c-0.1,0-0.2,0-0.2,0c-0.1,0-0.2,0-0.3-0.1c-0.1-0.1-0.2-0.2-0.4-0.3
		c-0.1-0.1-0.3-0.3-0.4-0.6c-0.2-0.3-0.3-0.6-0.5-0.9l-0.1-0.3c-0.1-0.2-0.2-0.4-0.4-0.7c-0.2-0.3-0.3-0.6-0.4-0.9
		c0-0.1-0.1-0.2-0.2-0.3l0,0c0,0-0.1,0-0.1-0.1C9,10,9,10,8.9,10l-2.4,0c-0.2,0-0.4,0.1-0.5,0.2l0,0.1c0,0,0,0.1,0,0.1
		c0,0.1,0,0.1,0.1,0.2c0.4,0.8,0.7,1.6,1.2,2.4c0.4,0.8,0.8,1.4,1.1,1.9c0.3,0.5,0.6,0.9,0.9,1.3c0.3,0.4,0.5,0.7,0.6,0.8
		c0.1,0.1,0.2,0.2,0.2,0.3l0.2,0.2c0.1,0.1,0.4,0.3,0.6,0.5c0.3,0.2,0.6,0.4,0.9,0.6c0.3,0.2,0.7,0.4,1.2,0.5
		c0.4,0.1,0.9,0.2,1.3,0.1h1c0.2,0,0.4-0.1,0.5-0.2l0,0c0,0,0-0.1,0.1-0.2c0-0.1,0-0.2,0-0.2c0-0.3,0-0.5,0.1-0.7
		c0-0.2,0.1-0.4,0.2-0.5c0.1-0.1,0.1-0.2,0.2-0.3c0.1-0.1,0.1-0.1,0.2-0.1c0,0,0.1,0,0.1,0c0.1,0,0.3,0,0.5,0.1
		c0.2,0.1,0.4,0.3,0.5,0.5c0.2,0.2,0.4,0.4,0.6,0.7c0.2,0.3,0.4,0.4,0.6,0.6l0.2,0.1c0.1,0.1,0.3,0.1,0.5,0.2c0.2,0.1,0.4,0.1,0.5,0
		l2.3,0c0.2,0,0.4,0,0.5-0.1c0.1-0.1,0.2-0.2,0.2-0.2c0-0.1,0-0.2,0-0.3C22.9,18.5,22.9,18.4,22.9,18.4z"/>
</g>
</svg>
