<?xml version="1.0" encoding="utf-8"?>
<!-- Generator: Adobe Illustrator 19.1.1, SVG Export Plug-In . SVG Version: 6.00 Build 0)  -->
<svg version="1.1" id="Слой_1" xmlns="http://www.w3.org/2000/svg" xmlns:xlink="http://www.w3.org/1999/xlink" x="0px" y="0px"
	 viewBox="0 0 28.9 28.9" style="enable-background:new 0 0 28.9 28.9;" xml:space="preserve">
<style type="text/css">
	.st0{fill:#60975D;}
	.st1{fill-rule:evenodd;clip-rule:evenodd;fill:#FFFFFF;}
</style>
<g>
	<path class="st0" d="M28.9,22.4c0,3.6-2.9,6.5-6.5,6.5H6.5C2.9,28.9,0,26,0,22.4V6.5C0,2.9,2.9,0,6.5,0h15.9c3.6,0,6.5,2.9,6.5,6.5
		V22.4z"/>
	<g>
		<path class="st1" d="M7.1,21.8c0.1-0.3,0.2-0.6,0.2-0.9c0.2-0.9,0.5-1.8,0.7-2.7c0-0.1,0-0.3,0-0.4c-2.3-4.3,0.1-9.5,4.8-10.6
			c4.3-1,8.2,1.9,8.9,5.8c0.7,4-1.9,7.9-5.9,8.6c-1.6,0.3-3.1,0-4.6-0.7c-0.1-0.1-0.3-0.1-0.5,0C8.8,21.4,7.5,21.7,7.1,21.8z
			 M8.8,20.1c0.7-0.2,1.4-0.4,2.1-0.5c0.2-0.1,0.3,0,0.5,0.1c1.3,0.7,2.6,1,4.1,0.8c3.3-0.5,5.6-3.6,5.1-7C20,10,16.8,7.7,13.4,8.4
			c-4.1,0.8-6.3,5.3-4.3,9c0.2,0.4,0.3,0.7,0.1,1.2C9.1,19,9,19.6,8.8,20.1z"/>
		<path class="st1" d="M16.4,17.9c-1.4-0.1-3.7-1.2-5.3-3.9c-0.6-1-0.5-2.1,0.3-2.8c0.3-0.3,0.6-0.2,0.9-0.1c0.1,0,0.2,0.1,0.2,0.2
			c0.2,0.5,0.4,0.9,0.6,1.4c0.1,0.3-0.1,0.5-0.5,0.9c-0.1,0.1-0.1,0.3,0,0.4c0.6,1,1.4,1.8,2.5,2.2c0.2,0.1,0.3,0,0.4-0.1
			c0.6-0.7,0.6-0.9,1-0.8c1.5,0.7,1.6,0.7,1.6,0.9C18.2,17.5,17.1,17.9,16.4,17.9z"/>
	</g>
</g>
</svg>
