<?xml version="1.0" encoding="utf-8"?>
<!-- Generator: Adobe Illustrator 19.1.1, SVG Export Plug-In . SVG Version: 6.00 Build 0)  -->
<svg version="1.1" id="Слой_1" xmlns="http://www.w3.org/2000/svg" xmlns:xlink="http://www.w3.org/1999/xlink" x="0px" y="0px"
	 viewBox="0 0 28.9 28.9" style="enable-background:new 0 0 28.9 28.9;" xml:space="preserve">
<style type="text/css">
	.st0{fill:#272624;}
	.st1{fill:#FFFFFF;}
</style>
<path class="st0" d="M28.9,22.4c0,3.6-2.9,6.5-6.5,6.5H6.5C2.9,28.9,0,26,0,22.4V6.5C0,2.9,2.9,0,6.5,0h15.9c3.6,0,6.5,2.9,6.5,6.5
	V22.4z"/>
<g>
	<path class="st1" d="M15,6.8c-0.4-0.3-1-0.3-1.4,0l-6.3,4.4c-0.3,0.2-0.5,0.6-0.5,1v4.7c0,0.4,0.2,0.8,0.6,1l6.4,4.2
		c0.4,0.3,1,0.3,1.4,0l6.5-4.3c0.3-0.2,0.6-0.6,0.6-1v-4.6c0-0.4-0.2-0.8-0.6-1L15,6.8z M19.8,11.9l-2.4,1.6l-2.2-1.6l0-3.2
		L19.8,11.9z M13.5,8.6v3.1l-2.3,1.6l-2.3-1.5L13.5,8.6z M8.3,13.4l1.5,1l-1.5,1V13.4z M13.6,20.1L8.9,17l2.3-1.6l2.3,1.6
		C13.6,16.9,13.6,20.1,13.6,20.1z M12.7,14.4l1.5-1l1.7,1.1l-1.5,1L12.7,14.4z M15.2,20.1v-3.2l2.2-1.5l2.4,1.6L15.2,20.1z
		 M20.5,15.5l-1.6-1l1.6-1.1V15.5z"/>
</g>
</svg>
